HIERARCHY
ROOT hip
{
	OFFSET 0.000000 0.000000 0.000000 
	CHANNELS 6 Xposition Yposition Zposition Xrotation Zrotation Yrotation
	JOINT abdomen
	{
		OFFSET 0.000000 3.402643 0.000000 
		CHANNELS 3 Xrotation Zrotation Yrotation
		JOINT chest
		{
			OFFSET 0.000000 8.438565 -0.680529 
			CHANNELS 3 Xrotation Zrotation Yrotation
			JOINT neck
			{
				OFFSET 0.000000 10.207942 -0.272212 
				CHANNELS 3 Xrotation Zrotation Yrotation
				JOINT head
				{
					OFFSET 0.000000 3.130431 0.000000 
					CHANNELS 3 Xrotation Zrotation Yrotation
					End Site
					{
						OFFSET 0.000000 3.130435 0.000000 
					}
				}
			}
			JOINT lCollar
			{
				OFFSET 3.470700 6.669187 -0.816635 
				CHANNELS 3 Yrotation Zrotation Xrotation
				JOINT lShldr
				{
					OFFSET 3.198488 0.000000 0.000000 
					CHANNELS 3 Zrotation Yrotation Xrotation
					JOINT lForeArm
					{
						OFFSET 10.139888 0.000000 0.000000 
						CHANNELS 3 Yrotation Zrotation Xrotation
						JOINT lHand
						{
							OFFSET 8.370511 0.000000 0.000000 
							CHANNELS 3 Zrotation Yrotation Xrotation
							End Site
							{
								OFFSET 4.083176 0.000000 0.000000 
							}
						}
					}
				}
			}
			JOINT rCollar
			{
				OFFSET -3.470700 6.669187 -0.816635 
				CHANNELS 3 Yrotation Zrotation Xrotation
				JOINT rShldr
				{
					OFFSET -3.198488 0.000000 0.000000 
					CHANNELS 3 Zrotation Yrotation Xrotation
					JOINT rForeArm
					{
						OFFSET -10.139888 0.000000 0.000000 
						CHANNELS 3 Yrotation Zrotation Xrotation
						JOINT rHand
						{
							OFFSET -8.370511 0.000000 0.000000 
							CHANNELS 3 Zrotation Yrotation Xrotation
							End Site
							{
								OFFSET -4.083176 0.000000 0.000000 
							}
						}
					}
				}
			}
		}
	}
	JOINT lThigh
	{
		OFFSET 5.308129 -1.633274 1.361059 
		CHANNELS 3 Xrotation Zrotation Yrotation
		JOINT lShin
		{
			OFFSET -2.041588 -20.007561 0.000000 
			CHANNELS 3 Xrotation Zrotation Yrotation
			JOINT lFoot
			{
				OFFSET 0.000000 -19.190928 -1.224953 
				CHANNELS 3 Xrotation Yrotation Zrotation
				End Site
				{
					OFFSET 0.000000 -2.449906 4.627600 
				}
			}
		}
	}
	JOINT rThigh
	{
		OFFSET -5.308129 -1.633274 1.361059 
		CHANNELS 3 Xrotation Zrotation Yrotation
		JOINT rShin
		{
			OFFSET 2.041588 -20.007561 0.000000 
			CHANNELS 3 Xrotation Zrotation Yrotation
			JOINT rFoot
			{
				OFFSET 0.000000 -19.190928 -1.224953 
				CHANNELS 3 Xrotation Yrotation Zrotation
				End Site
				{
					OFFSET 0.000000 -2.449906 4.627600 
				}
			}
		}
	}
}
MOTION
Frames: 18
Frame Time: 0.016667
-3.658955 46.271484 66.766388 -7.954692 5.046094 4.039599 0.000000 0.000000 0.000000 33.189178 -10.952768 -15.534840 20.209166 16.683313 5.915461 -33.236462 0.124416 11.474646 -3.053361 10.781914 0.554752 -30.260433 27.712206 -6.728120 -95.771034 -14.720873 0.286287 2.257589 -3.009509 -3.368610 -35.491577 -7.235187 -5.177397 0.262715 25.007725 -37.294975 71.210548 2.405218 -0.371846 -3.091408 1.892881 -3.591137 13.490845 9.791088 0.284126 39.230354 -3.328455 15.473030 -19.860323 0.404945 -0.005709 -16.294361 -16.987537 -0.927011 37.117310 9.930913 -10.569246 -13.153721 0.042219 0.207507 
-3.748092 46.527760 67.668922 -7.432299 5.747882 3.984977 0.000000 0.000000 0.000000 32.826321 -9.346210 -14.959908 18.985308 17.310905 5.731691 -33.236298 -0.268310 11.113386 -2.750878 15.710525 0.707591 -33.815311 27.619225 -5.111331 -96.581406 -13.604837 0.200519 2.237504 -2.834719 -3.361224 -45.000000 -2.802139 -3.324217 -6.730183 42.462933 -39.644135 68.666260 0.665295 -1.302798 -3.080714 1.717155 -3.591488 11.292202 9.193786 0.333315 43.075539 -3.097245 14.035597 -15.630608 0.411567 0.003875 -15.028809 -16.942703 -1.002689 36.661308 9.614730 -10.915306 -14.208060 0.079378 0.228340 
-3.781520 46.739468 68.504601 -7.086215 6.097264 4.164875 0.000000 0.000000 0.000000 32.604172 -6.983933 -13.077641 17.528448 17.614403 5.308390 -33.237759 -1.057125 10.236037 -2.621765 19.400532 0.805374 -35.518448 25.986719 -3.681897 -97.260880 -12.665455 0.149792 2.237504 -2.834719 -3.361224 -45.000000 -0.729726 -1.360977 -13.997218 52.454498 -44.631641 66.212288 0.497560 -1.388695 -3.235738 1.531023 -3.596317 9.101768 8.730062 0.445426 47.396503 -2.677530 11.775084 -12.477595 0.250401 0.127617 -13.687684 -17.368248 -0.935401 36.140839 9.608697 -11.174107 -15.077802 0.092670 0.049905 
-3.781520 46.906597 69.351410 -7.264266 6.438712 4.099102 0.000000 0.000000 0.000000 32.787758 -4.299307 -9.989724 15.638528 17.096697 4.589676 -33.092129 -1.986326 9.116637 -2.667228 22.381792 1.002065 -36.290218 23.156790 -2.660007 -97.615669 -11.435467 0.150109 2.237504 -2.834719 -3.361224 -45.000000 -2.224270 -3.955119 -8.589890 51.603649 -38.012257 65.355782 -0.209145 -1.769513 -3.224971 1.355300 -3.596214 6.380950 8.107540 0.159119 51.880722 -2.267534 8.508724 -11.421731 0.348977 -0.021582 -11.774953 -17.193672 -1.455917 35.121922 9.160991 -11.222279 -15.966698 -0.049501 -0.038186 
-3.748092 47.029167 70.198227 -7.451461 6.614365 4.060307 0.000000 0.000000 0.000000 33.399292 -1.476039 -6.076472 13.744084 16.381552 3.818958 -33.117725 -2.775050 8.066042 -2.723025 25.366552 1.108839 -37.070976 19.962564 -1.758255 -98.114830 -9.669880 0.168571 2.237504 -2.834719 -3.361224 -45.000000 -5.163229 -6.389933 -0.924544 37.965034 -31.479185 67.099640 0.080716 -1.651972 -3.060240 1.542042 -3.591603 3.816640 7.466757 0.266632 56.389107 -1.828237 7.014957 -12.117785 0.169456 0.085689 -9.970592 -17.128422 -1.052747 34.442528 9.032769 -11.893817 -16.503366 -0.125092 -0.069388 
-3.670095 47.140587 71.000481 -7.450784 6.788453 4.210359 0.000000 0.000000 0.000000 33.742859 0.868377 -2.402511 11.844009 15.292132 3.027645 -32.975315 -3.438022 7.395804 -2.789345 27.648306 1.208947 -37.480263 17.144726 -0.382373 -98.627731 -7.180719 0.040477 2.227658 -2.658974 -3.364126 -37.443905 -7.201311 -5.530180 2.193516 18.803961 -31.196367 70.802467 1.437781 -1.457351 -3.091408 1.892881 -3.591137 0.683369 6.417692 0.056630 59.606304 -1.478062 7.668818 -12.976282 0.537141 0.233039 -8.563312 -17.086731 -0.978509 34.100170 9.032671 -12.277868 -17.371935 -0.251706 0.068521 
-3.569815 47.252010 71.769318 -7.620245 6.954453 4.161901 0.000000 0.000000 0.000000 34.322041 3.046547 0.841252 9.979739 14.694867 2.382851 -32.990429 -3.829802 6.870743 -2.010978 28.715199 0.908401 -36.289112 14.181902 1.456862 -98.929756 -4.495765 -0.204629 2.227658 -2.658974 -3.364126 -28.636009 -8.272571 -4.525074 5.338155 4.743302 -31.155037 74.610817 2.499008 -1.584456 -3.112709 2.244339 -3.590521 -2.606759 5.145891 0.078333 61.775829 -1.470923 9.765305 -14.059976 0.256932 0.113532 -7.196195 -17.506218 -1.107562 33.744507 9.020323 -12.510667 -17.733706 0.068033 0.227421 
-3.469534 47.385723 72.526993 -7.987737 7.120642 4.095273 0.000000 0.000000 0.000000 35.117966 5.020733 3.353508 8.146702 14.240737 1.875881 -33.021507 -4.230443 6.511669 0.192485 28.564043 -0.179255 -33.309925 10.573173 3.884037 -98.801979 -1.924626 -0.116473 2.227658 -2.658974 -3.364126 -25.585796 -7.858871 -3.786104 7.459052 -1.758519 -30.283321 76.655571 2.941794 -1.691816 -3.123315 2.420072 -3.590256 -5.971085 4.331963 0.130524 62.871632 -1.643893 11.157774 -14.732769 0.594353 0.295842 -5.282212 -17.475483 -0.901283 33.407902 9.023499 -13.079084 -18.075935 0.074175 0.075831 
-3.358110 47.508289 73.273521 -8.511762 6.945562 4.063784 0.000000 0.000000 0.000000 36.150913 6.816482 5.321092 6.508838 13.941087 1.440041 -33.028477 -4.494974 6.220290 4.754114 27.593283 -2.310143 -29.045492 5.051195 6.704061 -97.924774 0.759414 -0.389774 2.227658 -2.658974 -3.364126 -25.951260 -4.978975 -2.454769 6.767356 -1.758369 -31.118513 76.579193 4.641097 -1.602789 -3.123315 2.420072 -3.590256 -8.879329 3.765996 0.247636 62.534206 -1.811866 11.269006 -15.995330 0.146501 0.080417 -3.359086 -17.379232 -1.256158 32.811897 9.150241 -13.314048 -18.603426 0.041636 0.057512 
-3.179833 47.597424 74.042358 -9.038752 6.762229 3.845802 0.000000 0.000000 0.000000 37.160294 8.153882 6.325042 5.239485 13.796445 1.087134 -33.051476 -4.759764 5.918540 10.256535 26.952143 -4.777037 -25.203266 -0.496486 8.775429 -97.147232 3.596081 -0.351286 2.237504 -2.834719 -3.361224 -27.089598 -1.325780 -0.730416 5.723510 0.000992 -32.101353 75.809143 6.024600 -1.728868 -3.123315 2.420072 -3.590256 -11.761309 3.630754 0.199440 60.938496 -2.375947 11.046273 -16.162109 -0.005748 -0.003166 -1.444796 -17.296215 -1.221494 32.214329 9.553144 -14.134852 -19.296295 -0.065231 0.374791 
-2.956984 47.653137 74.800018 -9.205020 6.413705 3.528616 0.000000 0.000000 0.000000 38.023277 9.318409 6.878966 3.969259 13.475380 0.774488 -32.890266 -4.907503 5.684166 13.744426 26.304668 -6.283819 -21.968824 -3.419254 9.422216 -96.783188 6.590694 -0.313705 2.227658 -2.658974 -3.364126 -26.739092 1.494316 0.698043 5.379422 0.891426 -32.953583 75.027214 7.626219 -1.418818 -3.112709 2.244339 -3.590521 -14.399428 3.445920 -0.072513 57.711334 -3.255719 10.542128 -16.149805 0.264236 0.156554 0.155678 -17.365744 -1.146226 31.764669 9.762090 -14.166779 -19.472519 -0.039743 0.188844 
-2.700710 47.697708 75.579994 -9.208586 6.054828 3.241742 0.000000 0.000000 0.000000 38.354149 10.394141 6.921696 3.058498 13.485725 0.554183 -32.908627 -5.172523 5.382572 15.067226 25.829464 -6.740523 -19.006058 -3.375906 9.039976 -97.271980 9.698524 -0.021145 2.227658 -2.658974 -3.364126 -25.553574 3.407516 1.580781 6.096233 0.548429 -33.868397 74.177750 10.583920 -0.343027 -3.112709 2.244339 -3.590521 -16.741537 3.250093 0.413058 53.314590 -3.051361 10.415023 -16.511192 0.347973 -0.050099 1.531764 -17.492891 -1.270050 30.795134 10.013922 -14.365659 -19.657934 -0.000013 0.212396 
-2.444436 47.697708 76.404533 -9.017617 5.372581 3.188216 0.000000 0.000000 0.000000 38.319656 11.394268 6.446054 2.162111 13.495850 0.352870 -32.918381 -5.300911 5.148273 15.605096 25.419037 -6.894093 -16.051756 -2.619689 8.308301 -97.723595 12.122475 0.243601 2.227658 -2.658974 -3.364126 -24.361727 4.882452 2.154549 6.641578 0.393146 -35.130592 72.867317 15.334823 1.392078 -3.102074 2.068609 -3.590815 -18.657715 3.612343 0.100754 47.661034 -3.371175 10.935834 -16.697376 0.232456 0.129463 2.772418 -17.173527 -1.315137 30.494759 10.328362 -13.995021 -20.019367 -0.127267 0.159277 
-2.165879 47.630852 77.284782 -8.828329 4.330632 2.840162 0.000000 0.000000 0.000000 38.131660 12.414573 6.410927 1.441017 13.496022 0.191819 -32.934895 -5.437575 5.090837 16.132576 25.020895 -7.025630 -13.631454 -2.233125 7.369004 -98.540688 14.395937 0.789416 2.217774 -2.483232 -3.367059 -24.252033 6.336716 2.774810 6.646796 1.461052 -36.354324 71.324593 20.886644 3.640839 -3.091408 1.892881 -3.591137 -19.744524 4.296099 0.420185 41.114929 -2.874776 10.224669 -16.677824 0.237522 0.121172 3.981938 -16.583542 -1.383443 29.898600 10.386644 -13.712648 -20.535713 -0.352932 0.236250 
-1.865032 47.474861 78.231880 -8.637833 2.947087 2.180878 0.000000 0.000000 0.000000 37.918091 13.306620 6.835150 0.717705 13.847655 0.021301 -32.934895 -5.437575 5.090837 16.360073 25.169186 -7.233569 -11.880027 -2.564795 6.583120 -99.631310 16.694254 1.392371 2.217774 -2.483232 -3.367059 -25.589962 8.012164 3.752541 5.952493 3.575834 -37.528000 69.686989 26.367018 6.044013 -3.080714 1.717155 -3.591488 -20.079405 5.183053 0.340248 34.944725 -2.275652 9.785200 -17.026333 0.512681 -0.111147 5.038628 -15.552984 -1.219596 29.364475 10.168054 -13.268230 -21.415529 -0.221842 0.291746 
-1.530761 47.240871 79.256981 -8.449217 1.386222 1.533699 0.000000 0.000000 0.000000 37.488220 13.946050 7.528298 -0.005321 14.208943 -0.139727 -32.932095 -5.436066 5.267671 17.174715 25.411715 -7.616904 -11.185057 -3.958293 5.542006 -100.814125 18.938816 2.254059 2.207459 -2.307868 -3.360273 -27.537146 10.084833 5.135754 4.743062 5.696015 -38.822227 68.861412 31.413736 7.839766 -3.080714 1.717155 -3.591488 -19.641676 6.608903 0.347084 29.674057 -1.553255 9.259733 -16.502707 0.247384 -0.050667 6.053107 -14.448931 -1.135411 29.355005 10.168595 -12.764130 -22.284582 -0.225457 0.107951 
-1.151920 46.940025 80.326653 -8.275330 -0.537096 0.410138 0.000000 0.000000 0.000000 37.183712 14.306356 8.347476 -0.194325 14.384653 -0.229698 -32.915157 -5.299423 5.325101 18.961033 25.533985 -8.477853 -10.828053 -7.471697 4.316597 -101.370560 20.501875 2.787230 2.207459 -2.307868 -3.360273 -29.411091 12.385953 6.826947 3.381474 6.767579 -40.676266 69.071617 36.035782 8.945784 -3.080714 1.717155 -3.591488 -19.120491 8.007378 0.378139 27.032927 -0.946868 9.007592 -15.963202 0.336703 0.129559 7.155783 -13.335155 -1.203027 29.674662 9.639625 -11.861476 -23.515219 -0.200048 0.110571 
-0.739654 46.639183 81.440880 -8.447849 -2.275210 -0.723250 0.000000 0.000000 0.000000 37.159065 14.152508 9.119029 -0.195060 14.560431 -0.229671 -32.905006 -5.171005 5.559391 20.325935 25.497635 -9.140216 -11.339074 -10.813373 2.876896 -101.136154 21.274694 2.631077 2.207459 -2.307868 -3.360273 -30.752916 14.228597 8.216368 2.168638 6.248111 -41.494995 70.133255 38.892147 9.189778 -3.080714 1.717155 -3.591488 -18.645967 9.430237 0.388165 27.942436 -0.693260 9.576570 -15.093000 0.358748 0.171292 8.336449 -12.193251 -1.098901 30.210600 8.873624 -10.392838 -24.579525 -0.094903 0.393649 
